<svg width="234" height="37" viewBox="0 0 234 37" fill="none" xmlns="http://www.w3.org/2000/svg">
<path d="M27.676 22.9445H29.9739V16.0508H27.676V12.9953H29.9739V11.4045C29.9739 10.1419 30.3779 9.1318 31.186 8.37425C31.994 7.59986 33.0715 7.21266 34.4182 7.21266C35.361 7.21266 36.4047 7.44835 37.5494 7.91971L36.3121 10.7227C35.7397 10.4365 35.2263 10.2934 34.7717 10.2934C34.3845 10.2934 34.0815 10.4028 33.8627 10.6217C33.6438 10.8405 33.5344 11.1604 33.5344 11.5812V12.9953H44.923V22.9445H47.0946V26H38.9383V22.9445H41.3625V16.0508H33.5344V22.9445H36.5646V26H27.676V22.9445ZM40.9079 7.56619H44.9735V10.8489H40.9079V7.56619ZM49.4373 12.9953H52.9221V15.2427C53.4608 14.3505 54.0836 13.694 54.7907 13.2731C55.4977 12.8522 56.3226 12.6418 57.2654 12.6418C58.6626 12.6418 59.7569 13.0627 60.5481 13.9044C61.3393 14.7293 61.7349 15.8824 61.7349 17.3639V26H58.1744V17.9194C58.1744 17.246 58.0061 16.7242 57.6694 16.3538C57.3327 15.9666 56.8782 15.773 56.3058 15.773C55.6324 15.773 54.9927 16.0255 54.3867 16.5306C53.7806 17.0356 53.3177 17.6753 52.9978 18.4497V26H49.4373V12.9953ZM69.0879 26.3788C67.6233 26.3788 66.4702 25.8232 65.6284 24.7122C64.8036 23.5842 64.3911 22.0186 64.3911 20.0153C64.3911 17.6417 65.0056 15.8235 66.2345 14.5609C67.4802 13.2815 69.2479 12.6418 71.5374 12.6418C71.8236 12.6418 72.2528 12.6586 72.8252 12.6923V7.56619H76.3352V26H72.8757L72.9515 24.3081H72.8505C72.4128 24.9815 71.8741 25.495 71.2343 25.8485C70.6115 26.202 69.896 26.3788 69.0879 26.3788ZM69.896 23.2728C70.4347 23.2728 70.9566 23.0455 71.4616 22.591C71.9666 22.1196 72.4212 21.4547 72.8252 20.5961V15.975C72.2528 15.8235 71.7057 15.7478 71.1838 15.7478C70.1233 15.7478 69.3152 16.0929 68.7597 16.7831C68.221 17.4733 67.9516 18.4834 67.9516 19.8133C67.9516 20.8907 68.12 21.7409 68.4566 22.3637C68.8102 22.9698 69.29 23.2728 69.896 23.2728ZM82.1974 26.8586C81.4903 26.8586 80.8759 26.5976 80.354 26.0758C79.849 25.5707 79.5964 24.9647 79.5964 24.2576C79.5964 23.5337 79.849 22.9193 80.354 22.4142C80.8759 21.8924 81.4903 21.6314 82.1974 21.6314C82.9213 21.6314 83.5357 21.8924 84.0408 22.4142C84.5458 22.9193 84.7983 23.5337 84.7983 24.2576C84.7983 24.9647 84.5458 25.5707 84.0408 26.0758C83.5357 26.5976 82.9213 26.8586 82.1974 26.8586ZM89.0351 31.6564C88.2607 31.6564 87.4526 31.4712 86.6109 31.1009L87.1412 28.1717C87.7809 28.4915 88.3196 28.6514 88.7573 28.6514C89.2792 28.6514 89.6664 28.4831 89.9189 28.1464C90.1883 27.8097 90.4744 27.2205 90.7775 26.3788L85.7018 13.0458L89.3886 12.7428L92.4946 22.0607L95.3733 12.9953H98.8833C97.8059 16.2612 96.6695 19.4766 95.4743 22.6415C94.2959 25.8064 93.3784 27.9781 92.7218 29.1565C92.2505 29.9982 91.7202 30.6211 91.131 31.0251C90.5586 31.446 89.86 31.6564 89.0351 31.6564ZM106.518 26.3788C105.205 26.3788 104.043 26.0926 103.033 25.5202C102.04 24.9478 101.266 24.1482 100.71 23.1213C100.155 22.0776 99.8768 20.8739 99.8768 19.5103C99.8768 18.1467 100.146 16.9514 100.685 15.9245C101.24 14.8808 102.015 14.0727 103.008 13.5004C104.018 12.928 105.18 12.6418 106.493 12.6418C107.806 12.6418 108.959 12.928 109.952 13.5004C110.962 14.0559 111.737 14.8471 112.275 15.874C112.831 16.9009 113.109 18.0878 113.109 19.4345C113.109 20.7981 112.831 22.0102 112.275 23.0708C111.737 24.1145 110.962 24.931 109.952 25.5202C108.959 26.0926 107.814 26.3788 106.518 26.3788ZM106.493 23.2981C107.402 23.2981 108.126 22.9529 108.664 22.2627C109.22 21.5557 109.498 20.6298 109.498 19.485C109.498 18.3403 109.22 17.4312 108.664 16.7578C108.126 16.0676 107.402 15.7225 106.493 15.7225C105.584 15.7225 104.851 16.0676 104.296 16.7578C103.757 17.4312 103.488 18.3403 103.488 19.485C103.488 20.6298 103.757 21.5557 104.296 22.2627C104.851 22.9529 105.584 23.2981 106.493 23.2981ZM120.189 26.3535C118.809 26.3535 117.723 25.9327 116.932 25.0909C116.141 24.2492 115.745 23.096 115.745 21.6314V12.9953H119.305V21.0506C119.305 21.7409 119.474 22.2796 119.811 22.6668C120.147 23.0371 120.602 23.2223 121.174 23.2223C121.746 23.2223 122.294 23.0371 122.815 22.6668C123.354 22.2964 123.8 21.7998 124.154 21.1769V12.9953H127.714V26H124.154V24.2829C123.666 24.9394 123.102 25.4529 122.462 25.8232C121.839 26.1768 121.082 26.3535 120.189 26.3535ZM131.064 12.9953H134.624V15.1165H134.826C135.314 14.2579 135.794 13.6266 136.265 13.2226C136.754 12.8186 137.36 12.6165 138.084 12.6165C138.387 12.6165 138.639 12.6502 138.841 12.7176L138.462 16.5558C138.025 16.438 137.671 16.3791 137.402 16.3791C137.015 16.3791 136.669 16.4548 136.366 16.6063C136.08 16.7578 135.819 16.9599 135.584 17.2124C135.365 17.4649 135.045 17.8521 134.624 18.374V26H131.064V12.9953ZM141.653 26.8586C140.945 26.8586 140.331 26.5976 139.809 26.0758C139.304 25.5707 139.052 24.9647 139.052 24.2576C139.052 23.5337 139.304 22.9193 139.809 22.4142C140.331 21.8924 140.945 21.6314 141.653 21.6314C142.376 21.6314 142.991 21.8924 143.496 22.4142C144.001 22.9193 144.253 23.5337 144.253 24.2576C144.253 24.9647 144.001 25.5707 143.496 26.0758C142.991 26.5976 142.376 26.8586 141.653 26.8586ZM147.055 22.9445H149.353V16.0508H147.055V12.9953H149.353V11.4045C149.353 10.1419 149.757 9.1318 150.565 8.37425C151.373 7.59986 152.45 7.21266 153.797 7.21266C154.74 7.21266 155.784 7.44835 156.928 7.91971L155.691 10.7227C155.119 10.4365 154.605 10.2934 154.151 10.2934C153.763 10.2934 153.46 10.4028 153.242 10.6217C153.023 10.8405 152.913 11.1604 152.913 11.5812V12.9953H155.943V16.0508H152.913V22.9445H155.943V26H147.055V22.9445ZM159.028 12.9953H162.588V15.1165H162.79C163.279 14.2579 163.758 13.6266 164.23 13.2226C164.718 12.8186 165.324 12.6165 166.048 12.6165C166.351 12.6165 166.603 12.6502 166.805 12.7176L166.427 16.5558C165.989 16.438 165.635 16.3791 165.366 16.3791C164.979 16.3791 164.634 16.4548 164.331 16.6063C164.045 16.7578 163.784 16.9599 163.548 17.2124C163.329 17.4649 163.009 17.8521 162.588 18.374V26H159.028V12.9953ZM170.8 7.56619H174.865V10.8489H170.8V7.56619ZM168.83 22.9445H171.254V16.0508H168.83V12.9953H174.815V22.9445H176.986V26H168.83V22.9445ZM185.236 26.3788C183.131 26.3788 181.473 25.7727 180.261 24.5606C179.066 23.3486 178.468 21.6651 178.468 19.5103C178.468 18.113 178.729 16.9009 179.251 15.874C179.773 14.8303 180.505 14.0306 181.448 13.4751C182.407 12.9196 183.527 12.6418 184.806 12.6418C186.692 12.6418 188.14 13.2478 189.15 14.4599C190.16 15.672 190.665 17.4228 190.665 19.7123C190.665 20.0995 190.656 20.3857 190.639 20.5709H182.054C182.222 21.4631 182.609 22.1449 183.215 22.6163C183.821 23.0708 184.638 23.2981 185.665 23.2981C186.288 23.2981 186.936 23.2223 187.609 23.0708C188.283 22.9024 188.872 22.6836 189.377 22.4142L189.958 25.2677C189.284 25.6212 188.535 25.8906 187.71 26.0758C186.902 26.2778 186.077 26.3788 185.236 26.3788ZM187.256 17.8942C187.205 17.1703 186.953 16.5979 186.498 16.1771C186.044 15.7394 185.438 15.5205 184.68 15.5205C183.956 15.5205 183.358 15.7309 182.887 16.1518C182.433 16.5727 182.146 17.1535 182.029 17.8942H187.256ZM193.328 12.9953H196.813V15.2427C197.352 14.3505 197.974 13.694 198.682 13.2731C199.389 12.8522 200.213 12.6418 201.156 12.6418C202.553 12.6418 203.648 13.0627 204.439 13.9044C205.23 14.7293 205.626 15.8824 205.626 17.3639V26H202.065V17.9194C202.065 17.246 201.897 16.7242 201.56 16.3538C201.224 15.9666 200.769 15.773 200.197 15.773C199.523 15.773 198.884 16.0255 198.278 16.5306C197.671 17.0356 197.209 17.6753 196.889 18.4497V26H193.328V12.9953ZM212.979 26.3788C211.514 26.3788 210.361 25.8232 209.519 24.7122C208.694 23.5842 208.282 22.0186 208.282 20.0153C208.282 17.6417 208.896 15.8235 210.125 14.5609C211.371 13.2815 213.139 12.6418 215.428 12.6418C215.714 12.6418 216.144 12.6586 216.716 12.6923V7.56619H220.226V26H216.767L216.842 24.3081H216.741C216.304 24.9815 215.765 25.495 215.125 25.8485C214.502 26.202 213.787 26.3788 212.979 26.3788ZM213.787 23.2728C214.326 23.2728 214.847 23.0455 215.352 22.591C215.857 22.1196 216.312 21.4547 216.716 20.5961V15.975C216.144 15.8235 215.597 15.7478 215.075 15.7478C214.014 15.7478 213.206 16.0929 212.651 16.7831C212.112 17.4733 211.842 18.4834 211.842 19.8133C211.842 20.8907 212.011 21.7409 212.347 22.3637C212.701 22.9698 213.181 23.2728 213.787 23.2728ZM227.25 26.3788C226.425 26.3788 225.625 26.2946 224.851 26.1263C224.093 25.9579 223.445 25.7306 222.906 25.4445L223.235 22.4142C223.807 22.7678 224.438 23.054 225.129 23.2728C225.819 23.4917 226.467 23.6011 227.073 23.6011C227.645 23.6011 228.125 23.5001 228.512 23.2981C228.9 23.0792 229.093 22.7678 229.093 22.3637C229.093 22.0439 228.959 21.7998 228.689 21.6314C228.42 21.4463 227.906 21.219 227.149 20.9496L226.467 20.6971C225.743 20.4278 225.154 20.1753 224.699 19.9396C224.245 19.6871 223.832 19.3083 223.462 18.8032C223.092 18.2982 222.906 17.6332 222.906 16.8083C222.906 15.4953 223.395 14.4768 224.371 13.7529C225.364 13.0122 226.652 12.6418 228.235 12.6418C229.48 12.6418 230.793 12.8859 232.174 13.3741L231.694 16.3791C231.206 16.0929 230.65 15.8656 230.027 15.6973C229.421 15.5121 228.849 15.4195 228.31 15.4195C227.755 15.4195 227.309 15.5121 226.972 15.6973C226.652 15.8824 226.492 16.1518 226.492 16.5053C226.492 16.842 226.627 17.0945 226.896 17.2629C227.166 17.4312 227.62 17.6248 228.26 17.8437C228.765 18.0288 229.06 18.1383 229.144 18.1719C229.851 18.4581 230.44 18.7359 230.911 19.0053C231.383 19.2746 231.795 19.6786 232.149 20.2173C232.502 20.7392 232.679 21.4126 232.679 22.2375C232.679 23.6179 232.182 24.6532 231.189 25.3435C230.196 26.0337 228.883 26.3788 227.25 26.3788Z" fill="white"/>
<path fill-rule="evenodd" clip-rule="evenodd" d="M3.94559 16.6767C3.94559 14.0655 6.06911 11.942 8.6803 11.942C11.2915 11.942 13.415 14.0655 13.415 16.6767C13.415 19.2879 11.2915 21.4114 8.6803 21.4114C6.06911 21.4114 3.94559 19.2879 3.94559 16.6767M16.3403 23.2209L13.6612 20.541C14.4922 19.4726 14.9933 18.1334 14.9933 16.6767C14.9933 13.1959 12.1611 10.3638 8.68032 10.3638C5.19952 10.3638 2.36737 13.1959 2.36737 16.6767C2.36737 20.1575 5.19952 22.9897 8.68032 22.9897C10.137 22.9897 11.4762 22.4886 12.5446 21.6576L15.2245 24.3367C15.3784 24.4906 15.5804 24.5679 15.7824 24.5679C15.9844 24.5679 16.1864 24.4906 16.3403 24.3367C16.6488 24.0281 16.6488 23.5294 16.3403 23.2209" fill="#FAAD14"/>
</svg>
